<?xml version="1.0" standalone="no"?>
<!DOCTYPE svg PUBLIC "-//W3C//DTD SVG 20010904//EN"
 "http://www.w3.org/TR/2001/REC-SVG-20010904/DTD/svg10.dtd">
<svg version="1.0" xmlns="http://www.w3.org/2000/svg"
 width="128.000000pt" height="128.000000pt" viewBox="0 0 128.000000 128.000000"
 preserveAspectRatio="xMidYMid meet">

<g transform="translate(0.000000,128.000000) scale(0.100000,-0.100000)"
fill="#000000" stroke="none">
<path d="M588 1218 c-9 -7 -18 -26 -20 -43 -3 -27 -7 -30 -41 -33 -32 -3 -39
-7 -43 -30 -5 -24 -15 -30 -95 -56 -125 -39 -228 -107 -301 -199 -47 -58 -25
-68 54 -24 75 41 188 83 276 102 58 12 63 11 73 -6 6 -12 21 -19 39 -19 l30 0
0 -105 c0 -58 -3 -105 -8 -105 -4 0 -43 25 -86 55 l-79 54 -26 -19 c-14 -10
-41 -31 -60 -47 l-33 -28 116 -79 c64 -43 116 -82 116 -85 0 -4 -47 -42 -105
-86 -57 -44 -104 -83 -105 -86 0 -4 28 -25 62 -47 l61 -40 71 53 71 54 5 -172
5 -172 70 0 70 0 3 177 c1 98 5 178 8 178 3 0 38 -22 78 -50 40 -27 78 -50 85
-50 14 0 110 71 111 82 0 7 -15 18 -153 113 l-78 54 98 77 c138 109 130 97 86
126 -99 65 -82 64 -154 8 -35 -27 -67 -50 -71 -50 -5 0 -8 43 -8 95 l0 95 29
0 c16 0 37 7 46 16 19 19 62 15 163 -16 61 -19 197 -82 217 -101 11 -11 45
-12 45 -1 0 5 -13 27 -28 48 -73 100 -195 175 -349 214 -35 9 -42 15 -45 38
-3 23 -8 27 -40 30 -36 3 -38 5 -38 37 0 24 -6 38 -19 45 -27 14 -84 13 -103
-2z m80 -50 c3 -25 0 -28 -27 -28 -26 0 -31 4 -31 23 0 30 9 39 35 35 13 -2
21 -12 23 -30z m82 -87 c5 -21 16 -27 77 -42 39 -10 97 -31 129 -47 61 -31
149 -91 142 -97 -2 -2 -40 9 -85 25 -45 16 -119 37 -164 46 -79 16 -83 16 -96
-2 -11 -16 -28 -18 -118 -19 -93 0 -104 2 -109 18 -4 17 -11 18 -58 12 -75
-10 -153 -30 -227 -60 -35 -14 -65 -24 -68 -22 -6 6 84 71 132 94 41 21 108
44 183 63 35 9 42 15 42 36 l0 25 107 -3 c104 -3 107 -4 113 -27z m-80 -291
c0 -111 -2 -120 -21 -130 -43 -24 -49 -9 -49 125 l0 125 35 0 35 0 0 -120z
m-16 -336 c14 -5 16 -32 16 -190 l0 -184 -35 0 -35 0 0 180 c0 160 2 180 18
189 21 13 17 12 36 5z"/>
</g>
</svg>
